HIERARCHY
ROOT Pelvis
{
	OFFSET 0.000000 0.963103 0.000000
	CHANNELS 6 Xposition Yposition Zposition Zrotation Yrotation Xrotation 
	JOINT L_Hip
	{
		OFFSET 0.065057 -0.078762 -0.016404
		CHANNELS 3 Zrotation Yrotation Xrotation
		JOINT L_Knee
		{
			OFFSET 0.072944 -0.382791 0.057965
			CHANNELS 3 Zrotation Yrotation Xrotation
			JOINT L_Ankle
			{
				OFFSET 0.041989 -0.431196 0.001038
				CHANNELS 3 Zrotation Yrotation Xrotation
				End Site #name: L_Foot
				{
					OFFSET 0.047514 -0.046739 0.122985
				}
			}
		}
	}
	JOINT R_Hip
	{
		OFFSET -0.061588 -0.087953 -0.023140
		CHANNELS 3 Zrotation Yrotation Xrotation
		JOINT R_Knee
		{
			OFFSET -0.061551 -0.383493 -0.016391
			CHANNELS 3 Zrotation Yrotation Xrotation
			JOINT R_Ankle
			{
				OFFSET -0.002249 -0.422855 -0.084593
				CHANNELS 3 Zrotation Yrotation Xrotation
				End Site #name: R_Foot
				{
					OFFSET -0.084965 -0.067069 0.106793
				}
			}
		}
	}
	JOINT Spine1
	{
		OFFSET -0.001043 0.131061 -0.010366
		CHANNELS 3 Zrotation Yrotation Xrotation
		JOINT Spine2
		{
			OFFSET -0.009117 0.140823 0.017223
			CHANNELS 3 Zrotation Yrotation Xrotation
			JOINT Spine3
			{
				OFFSET -0.002017 0.050140 0.020369
				CHANNELS 3 Zrotation Yrotation Xrotation
				JOINT Neck
				{
					OFFSET 0.005246 0.205831 -0.076612
					CHANNELS 3 Zrotation Yrotation Xrotation
					End Site #name: Head
					{
						OFFSET 0.000608 0.098987 0.046796
					}
				}
				JOINT L_Collar
				{
					OFFSET 0.075075 0.101629 -0.051003
					CHANNELS 3 Zrotation Yrotation Xrotation
					JOINT L_Shoulder
					{
						OFFSET 0.119944 0.027128 -0.052493
						CHANNELS 3 Zrotation Yrotation Xrotation
						JOINT L_Elbow
						{
							OFFSET 0.238323 -0.095461 -0.006045
							CHANNELS 3 Zrotation Yrotation Xrotation
							End Site #name: L_Wrist
							{
								OFFSET 0.016694 0.256160 0.088356
							}
						}
					}
				}
				JOINT R_Collar
				{
					OFFSET -0.075090 0.111305 -0.048277
					CHANNELS 3 Zrotation Yrotation Xrotation
					JOINT R_Shoulder
					{
						OFFSET -0.116715 0.019072 -0.043244
						CHANNELS 3 Zrotation Yrotation Xrotation
						JOINT R_Elbow
						{
							OFFSET -0.242788 -0.088567 0.048673
							CHANNELS 3 Zrotation Yrotation Xrotation
							End Site #name: R_Wrist
							{
								OFFSET 0.047329 0.262259 0.058917
							}
						}
					}
				}
			}
		}
	}
}
MOTION
Frames: 7
Frame Time: 0.041667
0.000000 0.963103 0.000000 -0.013540 -0.004243 -0.005493 0.017776 0.004099 0.007393 -0.007629 -0.000346 -0.003363 0.000000 0.000000 0.000000 0.015734 -0.001547 0.005444 -0.013698 0.002740 0.000094 0.007109 0.006345 0.003927 0.017465 -0.001624 0.007931 0.000000 0.000000 0.000000 -0.006270 0.003928 -0.003644 0.007357 -0.003525 0.007530 0.009635 0.006861 0.002666 -0.008383 -0.005396 -0.002374 0.000000 0.000000 0.000000 0.000000 0.000000 0.000000 0.000000 0.000000 0.000000 0.000000 0.000000 0.000000 
-0.003787 0.964073 -0.002142 0.164885 -0.252963 -0.074504 -0.098776 0.078205 0.486881 0.220918 -0.050306 -0.532702 -0.305499 -0.350511 0.442231 0.425265 -0.011296 -0.041935 -0.023749 0.007582 -0.555237 -0.300353 0.041369 -0.410945 0.104633 0.002578 0.240871 -0.079234 0.027353 -0.117900 -0.341077 -0.225169 0.173192 0.033176 -0.017213 0.235117 -0.103404 -0.288817 0.020356 0.089945 0.059149 0.026028 -0.360418 0.187876 -1.034750 -0.197599 0.000437 0.073263 -0.293819 -0.045332 -0.042294 -0.484424 0.131433 -0.129024 
-0.007269 0.964532 -0.004829 0.211209 -0.467042 -0.162682 0.075947 0.121036 0.577382 0.371928 -0.057851 -0.624271 -0.628561 -0.647647 0.973917 0.790426 -0.010137 -0.141322 0.009179 0.003354 -0.962309 -0.474935 -0.051926 -0.557890 0.195941 0.005549 0.468171 -0.062567 0.021815 -0.088190 -0.592145 -0.429422 0.295287 0.154314 -0.076035 0.395006 -0.150420 -0.571507 0.064340 -0.320437 0.163298 0.056759 -0.179291 0.172899 -1.760563 -0.308516 -0.146630 0.090662 -0.258799 -0.132368 -0.003301 -1.350607 0.311008 -0.049027 
-0.010296 0.965186 -0.007736 0.303415 -0.632938 -0.234767 0.243340 0.116213 0.421768 0.454267 -0.032407 -0.358756 -0.901266 -0.873320 1.441004 0.967893 0.019288 -0.358885 0.110464 -0.015578 -1.033314 -0.652124 -0.177030 -0.683311 0.284254 0.013575 0.776237 -0.008999 0.000806 -0.070695 -0.824606 -0.600505 0.444429 0.339967 -0.165043 0.441247 -0.219070 -0.744464 0.074172 -1.069407 0.305826 0.092167 0.311300 0.044198 -2.236710 -0.343473 -0.267867 0.084180 0.123275 -0.058318 0.045912 -2.391229 0.560332 -0.158837 
-0.012542 0.965741 -0.010807 0.366910 -0.764348 -0.276570 0.411853 0.077096 0.079112 0.509276 0.000684 -0.005835 -1.206704 -1.112923 1.970314 1.029170 0.058025 -0.601492 0.216239 -0.035288 -1.096738 -0.617283 -0.211934 -0.611457 0.378735 0.017731 1.042254 0.062440 -0.026725 -0.034373 -1.009883 -0.737970 0.545737 0.486049 -0.234084 0.378632 -0.296192 -0.899865 0.076537 -1.786304 0.354071 0.090417 0.969406 -0.145145 -2.555559 -0.270727 -0.420242 0.032575 0.613778 0.082785 0.093099 -3.291600 0.768532 -0.218749 
-0.013810 0.966397 -0.013544 0.472576 -0.901931 -0.313849 0.490977 -0.000497 -0.401795 0.628082 0.042354 0.444678 -1.527223 -1.425002 2.458680 0.964766 0.116988 -0.935963 0.350185 -0.061862 -0.965932 -0.580359 -0.303177 -0.492213 0.534851 0.010072 1.256294 0.138166 -0.051872 0.109530 -1.168141 -0.839313 0.563925 0.596453 -0.285143 0.252276 -0.464534 -0.983534 0.023249 -2.600747 0.312322 0.051557 1.784154 -0.397018 -2.670270 -0.113933 -0.509615 -0.040480 1.366779 0.559492 0.076189 -4.274661 0.980898 -0.189583 
-0.013980 0.966689 -0.015798 0.527144 -1.044768 -0.322383 0.584883 -0.113028 -1.086714 0.822656 0.104068 1.132609 -1.834192 -1.772475 2.871848 0.780471 0.187730 -1.320683 0.589458 -0.110457 -0.700961 -0.580748 -0.386740 -0.426223 0.761328 -0.009194 1.444524 0.237841 -0.085139 0.303129 -1.278890 -0.923261 0.522015 0.595990 -0.284181 0.193046 -0.599964 -1.036331 -0.022868 -3.357042 0.243093 0.005008 2.689815 -0.682574 -2.716248 0.089714 -0.624229 -0.135474 2.188804 1.185958 0.028613 -5.044567 1.165226 -0.302144 
